<svg width="48" height="48" viewBox="0 0 48 48" fill="none" xmlns="http://www.w3.org/2000/svg">
<path d="M27.193 23.7402V20.7202H40.704V23.8352M33.949 18.0762V20.7202M29.839 24.0242H37.87L34.09 26.9512V33.7482H31.35M27.193 28.5552H40.704" stroke="black" stroke-linecap="round" stroke-linejoin="round"/>
<path d="M42.45 12.458H24.957C24.3771 12.458 23.907 12.9281 23.907 13.508V39.594C23.907 40.1739 24.3771 40.644 24.957 40.644H42.45C43.0299 40.644 43.5 40.1739 43.5 39.594V13.508C43.5 12.9281 43.0299 12.458 42.45 12.458Z" stroke="black" stroke-linecap="round" stroke-linejoin="round"/>
<path d="M30.288 7.41699C30.1237 7.41741 29.9612 7.45073 29.81 7.51499L14.03 14.22C13.8817 14.2829 13.7472 14.3745 13.6343 14.4895C13.5215 14.6045 13.4324 14.7406 13.3722 14.89C13.312 15.0395 13.2819 15.1994 13.2835 15.3605C13.2852 15.5216 13.3187 15.6808 13.382 15.829L23.429 39.518C23.499 39.6817 23.6041 39.828 23.7368 39.9467C23.8695 40.0654 24.0266 40.1536 24.197 40.205C24.0108 39.9857 23.9081 39.7077 23.907 39.42V13.683C23.9066 13.522 23.938 13.3625 23.9994 13.2137C24.0609 13.0649 24.1511 12.9297 24.2649 12.8159C24.3787 12.7021 24.5139 12.6119 24.6627 12.5504C24.8115 12.489 24.971 12.4576 25.132 12.458H33.237L31.417 8.16599C31.3235 7.94386 31.1664 7.75428 30.9656 7.62104C30.7647 7.48779 30.529 7.41681 30.288 7.41699Z" stroke="black" stroke-linecap="round" stroke-linejoin="round"/>
<path d="M17.847 7.35552C17.6861 7.35524 17.5268 7.38682 17.3781 7.44844C17.2295 7.51005 17.0945 7.60048 16.981 7.71452L4.86001 19.8475C4.74593 19.9611 4.65541 20.0962 4.59365 20.2449C4.53189 20.3936 4.50009 20.553 4.50009 20.714C4.50009 20.875 4.53189 21.0345 4.59365 21.1832C4.65541 21.3319 4.74593 21.4669 4.86001 21.5805L23.041 39.7785C23.1668 39.9041 23.3185 40.0005 23.4856 40.061C23.6527 40.1214 23.831 40.1445 24.008 40.1285C23.7482 40.0007 23.5426 39.7844 23.428 39.5185L13.382 15.8255C13.3188 15.6775 13.2854 15.5185 13.2838 15.3575C13.2823 15.1966 13.3125 15.0369 13.3728 14.8877C13.4331 14.7384 13.5223 14.6026 13.6353 14.4879C13.7482 14.3733 13.8827 14.2821 14.031 14.2195L21.882 10.8845L18.713 7.71352C18.5997 7.59942 18.4649 7.50888 18.3165 7.44709C18.168 7.38531 18.0088 7.3535 17.848 7.35352L17.847 7.35552Z" stroke="black" stroke-linecap="round" stroke-linejoin="round"/>
</svg>
