<svg width="57" height="57" viewBox="0 0 57 57" fill="none" xmlns="http://www.w3.org/2000/svg">
<path d="M28.189 56.3781C43.7574 56.3781 56.3781 43.7574 56.3781 28.189C56.3781 12.6207 43.7574 0 28.189 0C12.6207 0 0 12.6207 0 28.189C0 43.7574 12.6207 56.3781 28.189 56.3781Z" fill="#0071BC"/>
<path d="M23.4908 24.2432H32.8872V46.7944H23.4908V24.2432Z" fill="white"/>
<path d="M28.189 18.9813C30.7837 18.9813 32.8872 16.8779 32.8872 14.2831C32.8872 11.6884 30.7837 9.58496 28.189 9.58496C25.5943 9.58496 23.4908 11.6884 23.4908 14.2831C23.4908 16.8779 25.5943 18.9813 28.189 18.9813Z" fill="white"/>
</svg>
