<svg width="67" height="67" viewBox="0 0 67 67" fill="none" xmlns="http://www.w3.org/2000/svg">
<path d="M57.1201 41.3057L64.7153 49.213L31.3172 65.9641C31.3172 65.9641 26.9473 68.149 24.8665 64.7155C16.543 51.1898 57.1201 41.3057 57.1201 41.3057Z" fill="#256382"/>
<path d="M30.3808 56.0791C30.3808 56.0791 24.0341 58.4721 25.1786 62.946C26.4271 67.6279 31.5253 64.8188 31.5253 64.8188L63.2587 49.2122C63.2587 49.2122 61.4899 44.2181 64.7153 40.8887L30.3808 56.0791Z" fill="#D9E3E8"/>
<path d="M35.7911 9.26074L66.1719 40.5779L30.2768 55.4562L7.28307 17.3762L35.7911 9.26074Z" fill="#42ADE2"/>
<path d="M63.1546 44.3231L41.9297 53.479L62.7384 43.3867L63.1546 44.3231ZM62.8425 47.0283L40.265 56.9124L62.4263 46.0919L62.8425 47.0283ZM63.0506 48.5889L34.2304 61.8025L62.6344 47.6525L63.0506 48.5889Z" fill="#94989B"/>
<path d="M24.7624 64.612C21.2249 56.8087 30.2768 55.4561 30.2768 55.4561L7.28306 17.3761C7.28306 17.3761 2.08087 17.2721 2.08087 22.9945C2.08087 25.3875 3.12131 27.1562 3.12131 27.1562L24.7624 64.612Z" fill="#428BC1"/>
<path d="M9.0518 33.5029L1.4566 41.4103L34.8547 58.1613C34.8547 58.1613 39.2245 60.3462 41.3054 56.9128C49.6289 43.3871 9.0518 33.5029 9.0518 33.5029Z" fill="#547725"/>
<path d="M35.687 48.2763C35.687 48.2763 42.0337 50.6693 40.8892 55.1432C39.6407 59.8252 34.6466 57.016 34.6466 57.016L2.91322 41.4094C2.91322 41.4094 4.68196 36.4153 1.4566 33.0859L35.687 48.2763Z" fill="#D9E3E8"/>
<path d="M30.3808 1.45703L0 32.7742L35.8951 47.6525L58.8888 9.57245L30.3808 1.45703Z" fill="#83BF4F"/>
<path d="M3.32941 35.583L24.1382 45.6753L2.91324 36.5194L3.32941 35.583ZM3.74559 38.2881L25.8029 49.1087L3.22537 39.2245L3.74559 38.2881ZM3.5375 39.8488L31.8374 53.9988L3.01728 40.7852L3.5375 39.8488Z" fill="#94989B"/>
<path d="M41.4094 56.8083C44.9469 49.005 35.8951 47.6524 35.8951 47.6524L58.8888 9.57239C58.8888 9.57239 64.091 9.46835 64.091 15.1908C64.091 17.5838 63.0506 19.3525 63.0506 19.3525L41.4094 56.8083Z" fill="#699635"/>
<path d="M58.9929 27.0508L65.3395 33.7096L37.1436 47.7555C37.1436 47.7555 33.3981 49.5243 31.6293 46.7151C24.7624 35.3743 58.9929 27.0508 58.9929 27.0508Z" fill="#962C2C"/>
<path d="M36.4154 39.5366C36.4154 39.5366 31.0051 41.5135 32.0455 45.3631C33.0859 49.3168 37.3517 46.9238 37.3517 46.9238L64.091 33.7102C64.091 33.7102 62.6344 29.5484 65.3395 26.7393L36.4154 39.5366Z" fill="#D9E3E8"/>
<path d="M40.9933 0L66.5881 26.4271L36.3113 39.0164L16.8551 6.86689L40.9933 0Z" fill="#ED4C5C"/>
<path d="M41.7216 6.03418L46.7157 11.5485L28.2999 18.5194L23.9301 11.4445L41.7216 6.03418Z" fill="white"/>
<path d="M64.091 29.6522L46.1954 37.2474L63.6748 28.7158L64.091 29.6522ZM63.8829 31.9412L44.7388 40.1606L63.4667 31.0048L63.8829 31.9412ZM64.091 33.1897L39.7447 44.3224L63.5708 32.2533L64.091 33.1897Z" fill="#94989B"/>
<path d="M31.7334 46.7152C28.8201 40.1604 36.4153 39.0159 36.4153 39.0159L16.8551 6.86639C16.8551 6.86639 12.3812 6.76235 12.3812 11.5484C12.3812 13.5252 13.2136 15.0859 13.2136 15.0859L31.7334 46.7152Z" fill="#C94747"/>
</svg>
