<svg width="67" height="64" viewBox="0 0 67 64" fill="none" xmlns="http://www.w3.org/2000/svg">
<g clip-path="url(#clip0_71_192)">
<path d="M55.5584 46.2222C55.5584 48.1082 54.7813 49.9169 53.3979 51.2505C52.0145 52.5841 50.1383 53.3333 48.1819 53.3333H7.61073C5.65434 53.3333 3.77808 52.5841 2.39471 51.2505C1.01133 49.9169 0.234161 48.1082 0.234161 46.2222V7.11111C0.234161 5.22513 1.01133 3.41639 2.39471 2.0828C3.77808 0.749204 5.65434 0 7.61073 0L48.1819 0C50.1383 0 52.0145 0.749204 53.3979 2.0828C54.7813 3.41639 55.5584 5.22513 55.5584 7.11111V46.2222Z" fill="#D99E82"/>
<path d="M51.8701 46.2223C51.8701 47.1653 51.4816 48.0697 50.7899 48.7365C50.0982 49.4033 49.1601 49.7779 48.1819 49.7779H7.61072C6.63253 49.7779 5.6944 49.4033 5.00271 48.7365C4.31103 48.0697 3.92244 47.1653 3.92244 46.2223V7.11122C3.92244 6.16823 4.31103 5.26386 5.00271 4.59706C5.6944 3.93027 6.63253 3.55566 7.61072 3.55566H48.1819C49.1601 3.55566 50.0982 3.93027 50.7899 4.59706C51.4816 5.26386 51.8701 6.16823 51.8701 7.11122V46.2223Z" fill="#5C913B"/>
<path d="M14.0929 15.819C13.9454 15.9896 13.7536 16.2456 13.7536 16.5443C13.7536 17.1985 14.2552 17.483 14.9043 17.483H19.8282C20.3888 17.483 20.8904 17.1985 20.8904 16.5443C20.8904 15.8901 20.3906 15.6056 19.7397 15.6056H17.0417C18.2938 14.0856 20.5806 12.1247 20.5806 10.1479C20.5806 8.34341 19.12 7.19141 17.3072 7.19141C15.4944 7.19141 13.8421 8.62607 13.8421 10.4181C13.8421 10.971 14.2109 11.4545 14.9191 11.4545C16.3354 11.4545 15.5239 9.15229 17.2187 9.15229C17.8236 9.15229 18.2809 9.66429 18.2809 10.2474C18.2809 10.7594 18.0301 11.2003 17.7646 11.5701C16.6433 13.1327 15.3174 14.4127 14.0929 15.819ZM11.6826 25.4776H9.54523V23.4154C9.54523 22.9034 9.20591 22.5639 8.66004 22.5639C8.11602 22.5639 7.7767 22.9052 7.7767 23.4154V25.4776H5.63934C5.09347 25.4776 4.75415 25.819 4.75415 26.3292C4.75415 26.8412 5.09347 27.1825 5.63934 27.1825H7.7767V29.243C7.7767 29.755 8.11602 30.0945 8.66004 30.0945C9.20591 30.0945 9.54523 29.755 9.54523 29.243V27.1825H11.6826C12.2285 27.1825 12.5678 26.8412 12.5678 26.3292C12.5678 25.819 12.2285 25.4776 11.6826 25.4776ZM19.7397 28.0501H17.0398C18.2938 26.5301 20.5787 24.5692 20.5787 22.5923C20.5787 20.7879 19.1182 19.6359 17.3054 19.6359C15.4926 19.6359 13.8402 21.0723 13.8402 22.8625C13.8402 23.4154 14.2091 23.899 14.9154 23.899C16.3317 23.899 15.5203 21.5967 17.2169 21.5967C17.8217 21.5967 18.2791 22.1087 18.2791 22.6919C18.2791 23.2038 18.0283 23.6447 17.7627 24.0145C16.6415 25.5772 15.3156 26.8572 14.091 28.2652C13.9435 28.4359 13.7517 28.6918 13.7517 28.9905C13.7517 29.6447 14.2533 29.9292 14.9025 29.9292H19.8263C20.3869 29.9292 20.8886 29.6447 20.8886 28.9905C20.8886 28.3345 20.3888 28.0501 19.7397 28.0501ZM21.2887 33.7247H5.91965C5.6751 33.7247 5.44057 33.6311 5.26765 33.4644C5.09472 33.2977 4.99758 33.0716 4.99758 32.8358C4.99758 32.6001 5.09472 32.374 5.26765 32.2073C5.44057 32.0406 5.6751 31.947 5.91965 31.947H21.2869C21.5314 31.9467 21.7661 32.0401 21.9392 32.2067C22.1123 32.3732 22.2096 32.5992 22.2099 32.835C22.2101 33.0707 22.1132 33.2969 21.9405 33.4638C21.7677 33.6306 21.5333 33.7245 21.2887 33.7247Z" fill="white"/>
<path d="M64.7792 64V57.7778C64.7792 51.8862 57.9835 48 51.8702 48H29.7404C23.6308 48 16.8315 51.8862 16.8315 57.7778V64H64.7792Z" fill="#9266CC"/>
<path d="M40.702 9.01172C48.2741 9.01172 60.8917 12.6615 60.8917 28.4748C60.8917 44.2882 60.8917 47.9379 57.1057 47.9379C53.3178 47.9379 48.2722 44.2882 40.7002 44.2882C33.13 44.2882 28.1895 47.9379 24.2965 47.9379C20.079 47.9379 20.5105 33.3406 20.5105 28.4748C20.5142 12.6615 33.1318 9.01172 40.702 9.01172Z" fill="#FFAC33"/>
<path d="M31.5846 48H49.7955C49.7955 48 47.4793 54.2222 40.6891 54.2222C33.899 54.2222 31.5846 48 31.5846 48Z" fill="#292F33"/>
<path d="M34.0336 48.0357C34.0336 50.6668 38.0391 52.4446 40.8053 52.4446C43.5715 52.4446 47.5549 50.6668 47.5549 48.0357V42.3379H34.0336V48.0357Z" fill="#FFDC5D"/>
<path d="M34.0207 44.7625C35.9072 46.8159 38.2456 47.3723 40.7869 47.3723C43.3299 47.3723 45.6683 46.8176 47.5549 44.7625V39.543H34.0207V44.7625Z" fill="#F9CA55"/>
<path d="M25.5616 27.9418C25.5616 17.5702 32.3407 9.16309 40.702 9.16309C49.0634 9.16309 55.8443 17.5702 55.8443 27.9418C55.8443 38.3115 49.0634 46.228 40.702 46.228C32.3407 46.228 25.5616 38.3133 25.5616 27.9418Z" fill="#FFDC5D"/>
<path d="M40.702 41.8545C37.7422 41.8545 36.1913 40.443 36.0253 40.2812C35.7967 40.053 35.6696 39.7476 35.6713 39.4303C35.673 39.113 35.8033 38.809 36.0343 38.583C36.2654 38.357 36.5789 38.227 36.908 38.2208C37.237 38.2146 37.5556 38.3326 37.7957 38.5497C37.8602 38.6065 38.8155 39.4225 40.702 39.4225C42.6181 39.4225 43.5734 38.5817 43.6102 38.5479C43.8522 38.3286 44.1737 38.2094 44.5057 38.2161C44.8378 38.2227 45.1539 38.3546 45.3861 38.5834C45.8656 39.0617 45.8656 39.8119 45.3788 40.2812C45.2146 40.443 43.6656 41.8545 40.702 41.8545Z" fill="#DF1F32"/>
<path d="M21.8567 33.7776C21.818 31.9998 21.7756 33.3793 21.7756 32.9509C21.7756 26.8673 25.5616 33.8291 25.5616 29.4967C25.5616 25.1607 28.0844 24.7269 30.6072 22.2949C31.8704 21.0771 34.3932 18.6931 34.3932 18.6931C34.3932 18.6931 40.702 22.3678 45.7494 22.3678C50.795 22.3678 55.8443 24.8122 55.8443 29.678C55.8443 34.5438 59.6303 26.862 59.6303 32.9438C59.6303 33.3776 59.5897 31.9998 59.5565 33.7776H60.8806C60.8936 30.222 60.8936 30.3571 60.8936 28.0851C60.8936 12.2718 48.2741 6.38379 40.7039 6.38379C33.1337 6.38379 20.516 12.174 20.516 27.9873C20.516 29.3971 20.4792 30.222 20.5308 33.7776H21.8567Z" fill="#FFAC33"/>
<path d="M34.55 31.7973C34.1366 31.7959 33.7407 31.637 33.4484 31.3553C33.1561 31.0735 32.9913 30.6918 32.9898 30.2933V28.7911C32.9898 27.9644 33.6924 27.2871 34.55 27.2871C35.4075 27.2871 36.112 27.9644 36.112 28.7911V30.2933C36.11 30.6919 35.9448 31.0737 35.6522 31.3554C35.3596 31.6371 34.9635 31.7959 34.55 31.7973ZM47.0256 31.7973C46.6123 31.7959 46.2163 31.637 45.924 31.3553C45.6317 31.0735 45.4669 30.6918 45.4655 30.2933V28.7911C45.4655 27.9644 46.1681 27.2871 47.0256 27.2871C47.8831 27.2871 48.5857 27.9644 48.5857 28.7911V30.2933C48.5843 30.6918 48.4194 31.0735 48.1272 31.3553C47.8349 31.637 47.4389 31.7959 47.0256 31.7973Z" fill="#662113"/>
<path d="M42.3489 36.4448H39.2304C39.0237 36.4443 38.8255 36.3649 38.6793 36.224C38.5332 36.0831 38.4508 35.8921 38.4503 35.6928V35.4208C38.4503 35.0065 38.7989 34.667 39.2304 34.667H42.3489C42.7767 34.667 43.1289 35.0048 43.1289 35.4208V35.6928C43.1284 35.8921 43.0461 36.0831 42.8999 36.224C42.7537 36.3649 42.5556 36.4443 42.3489 36.4448Z" fill="#C1694F"/>
<path d="M28.7151 28.3311C28.7151 30.9053 27.3615 32.9924 25.6925 32.9924C24.0236 32.9924 22.67 30.9053 22.67 28.3311C22.67 25.7569 24.0236 23.668 25.6925 23.668C27.3615 23.6662 28.7151 25.7551 28.7151 28.3311ZM58.9388 28.3311C58.9388 30.9053 57.587 32.9924 55.9162 32.9924C54.2473 32.9924 52.8937 30.9053 52.8937 28.3311C52.8937 25.7569 54.2454 23.668 55.9162 23.668C57.587 23.6662 58.9388 25.7551 58.9388 28.3311Z" fill="#FFDC5D"/>
<path d="M40.8053 53.7277C40.8053 53.7277 47.0403 58.1615 48.3552 58.6646C48.6429 58.7748 47.6784 52.165 47.6784 52.165H33.934C33.934 52.165 32.9695 58.8868 33.5025 58.6095C34.6827 58.0015 40.8053 53.7277 40.8053 53.7277Z" fill="#744EAA"/>
<path d="M32.1212 46.0744C33.1613 47.0806 40.8053 52.0886 40.8053 52.0886C40.8053 52.0886 36.8865 54.2966 33.2701 58.3731C32.9105 58.7819 30.4246 50.1508 30.349 48.2237C30.3269 47.6851 31.6215 45.5926 32.1212 46.0744ZM49.5281 46.0744C48.4843 47.0806 40.844 52.0886 40.844 52.0886C40.844 52.0886 44.7628 54.2966 48.3755 58.3731C48.7351 58.7819 51.2173 50.1508 51.2929 48.2237C51.3151 47.6851 50.026 45.5926 49.5281 46.0744Z" fill="#CBB7EA"/>
<path d="M38.9612 53.333H42.6494V63.9997H38.9612V53.333Z" fill="#744EAA"/>
<path d="M40.8053 63.1112C41.8238 63.1112 42.6494 62.3153 42.6494 61.3334C42.6494 60.3516 41.8238 59.5557 40.8053 59.5557C39.7868 59.5557 38.9612 60.3516 38.9612 61.3334C38.9612 62.3153 39.7868 63.1112 40.8053 63.1112Z" fill="#CBB7EA"/>
<path d="M40.8053 57.7782C41.8238 57.7782 42.6494 56.9823 42.6494 56.0004C42.6494 55.0186 41.8238 54.2227 40.8053 54.2227C39.7868 54.2227 38.9612 55.0186 38.9612 56.0004C38.9612 56.9823 39.7868 57.7782 40.8053 57.7782Z" fill="#CBB7EA"/>
</g>
<defs>
<clipPath id="clip0_71_192">
<rect width="66.3891" height="64" fill="white" transform="translate(0.234161)"/>
</clipPath>
</defs>
</svg>
